<svg width="36" height="36" viewBox="0 0 36 36" fill="none" xmlns="http://www.w3.org/2000/svg">
<path d="M12 4.75H24C28.0041 4.75 31.25 7.99594 31.25 12V24C31.25 28.0041 28.0041 31.25 24 31.25H12C7.99594 31.25 4.75 28.0041 4.75 24V12C4.75 7.99594 7.99594 4.75 12 4.75Z" fill="white" fill-opacity="0.5" stroke="white" stroke-width="1.5"/>
<path fill-rule="evenodd" clip-rule="evenodd" d="M24.2169 13.1793C24.5595 13.5201 24.5611 14.0741 24.2204 14.4168L15.8676 22.8168C15.7034 22.9819 15.4801 23.0748 15.2471 23.0748C15.0142 23.0748 14.7909 22.9819 14.6267 22.8168L11.7794 19.9534C11.4387 19.6108 11.4403 19.0568 11.7829 18.716C12.1256 18.3753 12.6796 18.3768 13.0204 18.7195L15.2471 20.9589L22.9794 13.1828C23.3202 12.8402 23.8742 12.8386 24.2169 13.1793Z" fill="white"/>
</svg>
