<svg width="18" height="18" viewBox="0 0 18 18" fill="none" xmlns="http://www.w3.org/2000/svg">
<path d="M6 1.5H12C14.4853 1.5 16.5 3.51472 16.5 6V12C16.5 14.4853 14.4853 16.5 12 16.5H6C3.51472 16.5 1.5 14.4853 1.5 12V6C1.5 3.51472 3.51472 1.5 6 1.5Z" fill="#4C79FF" fill-opacity="0.1" stroke="#4C79FF"/>
<path fill-rule="evenodd" clip-rule="evenodd" d="M12.5526 6.24506C12.7484 6.43977 12.7493 6.75635 12.5546 6.95216L7.78159 11.7522C7.68774 11.8465 7.56013 11.8996 7.42704 11.8996C7.29394 11.8996 7.16634 11.8465 7.07249 11.7522L5.4455 10.116C5.25079 9.92016 5.25168 9.60358 5.44749 9.40887C5.64331 9.21416 5.95989 9.21505 6.1546 9.41087L7.42704 10.6905L11.8455 6.24705C12.0402 6.05124 12.3568 6.05035 12.5526 6.24506Z" fill="#4C79FF"/>
</svg>
