<svg width="36" height="36" viewBox="0 0 36 36" fill="none" xmlns="http://www.w3.org/2000/svg">
<path fill-rule="evenodd" clip-rule="evenodd" d="M18.0002 6.07422C18.6215 6.07422 19.1252 6.5779 19.1252 7.19922V16.8742H28.8002C29.4215 16.8742 29.9252 17.3779 29.9252 17.9992C29.9252 18.6205 29.4215 19.1242 28.8002 19.1242H19.1252V28.7992C19.1252 29.4205 18.6215 29.9242 18.0002 29.9242C17.3789 29.9242 16.8752 29.4205 16.8752 28.7992L16.8752 19.1242H7.2002C6.57888 19.1242 6.0752 18.6205 6.0752 17.9992C6.0752 17.3779 6.57887 16.8742 7.2002 16.8742H16.8752L16.8752 7.19922C16.8752 6.5779 17.3789 6.07422 18.0002 6.07422Z" fill="#4C79FF"/>
</svg>
